<?xml version="1.0" encoding="utf-8"?>
<!-- Generator: Adobe Illustrator 23.0.6, SVG Export Plug-In . SVG Version: 6.00 Build 0)  -->
<svg version="1.1" id="Ashe" xmlns="http://www.w3.org/2000/svg" xmlns:xlink="http://www.w3.org/1999/xlink" x="0px" y="0px"
	 viewBox="0 0 446.7 510.7" style="enable-background:new 0 0 446.7 510.7;" xml:space="preserve">
<style type="text/css">
	.st0{fill:#D4EDFF;}
	.st1{fill:#F4E7E5;}
	.st2{fill:#0F1A37;}
	.st3{fill:#DDAD18;}
	.st4{fill:url(#hair_left_1_);}
	.st5{fill:url(#hari_right_1_);}
</style>
<circle id="circle" class="st0" cx="231.9" cy="223.1" r="204.5"/>
<path id="face" class="st1" d="M194.2,154.4c0,0-41,0.8-27,77.7c0,0,19.1,42.5,42.9,53.3s24,18.1,54.7-9.2s34.5-63,34.5-63
	S297.2,126,194.2,154.4z"/>
<path id="hat" class="st2" d="M133.3,300.4c0,0-37.5-48.4,25.2-110.9c0,0,15.3-12.7,14.5-32s54.3,9.7,58.5,26.8
	c0,0,36.4-41.9,56.3-33.2c0,0,5.4,10.1,3.1,14.6c-2.3,4.5,28.3,40.2,32.1,44.7c3.8,4.5,18.4,29.8,17.6,48.4l13,29
	c0,0,33.9-16.5,34.4-52.9c0.5-36.4-26.1-24.4-67.9-134.5c0,0-17.2-51.2-35.9-49.8c0,0-15.8-31.7-51-45c0,0-45.9,19.2-51.8,45.5
	c0,0-19.2-1.9-44.8,63.2s-56.1,92.9-59,104.8C74.7,231,66.9,279.3,133.3,300.4z"/>
<path id="hat_deco" class="st3" d="M149,111.3c-0.7-1.3,16.2,5,30.3,2.8c9.9-1.5,18.4-11.9,18.4-11.9S176.5,62.5,211,38.1
	c0,0-26.7,67.5,20.6,73.7c0,0,46.3-4.3,20.7-73.7c0,0,32.5,16.3,12.3,63.2c0,0,10.3,20.6,52.1,10.5c0,0-10.8,18.2-35.4,12.4
	s-41.3-7.2-48.4,8.6c0,0-8.6-13.9-31.2-13.9C201.6,119,161.8,135.3,149,111.3z"/>
<path id="hat_decor_2" class="st3" d="M162.5,144.1c0,0,29.5-38.6,69.1,2.2c0,0,29.6-40.2,69.1-2.5c0,0-46.5-23.7-69.1,31.7
	C231.6,175.5,216.8,123.5,162.5,144.1z"/>
<linearGradient id="hair_left_1_" gradientUnits="userSpaceOnUse" x1="121.1212" y1="303.8905" x2="219.4225" y2="303.8905">
	<stop  offset="0" style="stop-color:#FFFFFF"/>
	<stop  offset="1" style="stop-color:#C2C2C2"/>
</linearGradient>
<path id="hair_left" class="st4" d="M196.8,427.8c0,0,29.4-4.2,21.1-38.5c-8.2-34.3-57.2-45-44.3-70.9s23.8-27.7,19.4-46.3
	c0,0-39.1-36.7-28.8-84.6c0.8-3.6,22.5-33.7,29.9-33.1c7.4,0.5-25.5-30.7-52.2,43.6c0,0-27,43.4-19.6,67.1
	c7.4,23.6,5.1,25.9,23.5,48.4c0,0-12.1,26.3,6.7,51.1c0,0,9.8,12.6-16.1,45.7c0,0,37.6-10.7,29.4-67.8c0,0,31.3,33.2,17.2,57.2
	c-14.1,24-35.2,37,0,59.8c0,0,18,1.1,24.3-7.2c0,0-26.6,3.4-22.3-25.9c0,0,6.7-10.3,14.1-17.5C206.6,401.5,196.8,427.8,196.8,427.8z
	"/>
<linearGradient id="hari_right_1_" gradientUnits="userSpaceOnUse" x1="251.0044" y1="327.9644" x2="352.314" y2="327.9644">
	<stop  offset="0" style="stop-color:#FFFFFF"/>
	<stop  offset="1" style="stop-color:#C2C2C2"/>
</linearGradient>
<path id="hari_right" class="st5" d="M265.6,156.2c0,0,15.4-13.2,23.6,0s4.8,27.3,27.5,46.7s23.8,53,23.1,56
	c-0.8,3,28.5,32.4,0.2,75.1c0,0,15.1-33.2-4.5-51.1c0,0-5.5,9.3,0.4,27.8c0,0-11-6.5-11-9.9c0,0,3.8,27.8,9.4,30.5
	c0,0-13.3-10.3-14.1-19.8c0,0,2,41.5,8.6,51.4c6.7,9.9-18.9-9.5-19.8-36.2c0,0-24.6,41.9-9.7,70.5c15,28.6,43.6,38.1,29.9,74.7
	s-31.7,33.5-31.7,33.5s12.7-42.7,1.9-64s-26.5-27.4-26.5-27.4s15.9,50.9,26.5,53.6c0,0-52.4-14.8-48.1-54.4c4.3-39.6-1.6-40,12.1-77
	c13.7-37,20.9-61.7,14.8-74.5c0,0,20.3-32.3,21.2-48.7C299.3,213.2,291,167,265.6,156.2z"/>
</svg>
