<?xml version="1.0" encoding="utf-8"?>
<!-- Generator: Adobe Illustrator 23.0.6, SVG Export Plug-In . SVG Version: 6.00 Build 0)  -->
<svg version="1.1" id="draven" xmlns="http://www.w3.org/2000/svg" xmlns:xlink="http://www.w3.org/1999/xlink" x="0px" y="0px"
	 viewBox="0 0 431.6 500.8" style="enable-background:new 0 0 431.6 500.8;" xml:space="preserve">
<style type="text/css">
	.st0{fill:#E9E9FF;}
	.st1{fill:url(#hair_1_);}
	.st2{fill:#FFDA3F;}
	.st3{fill:#16AA00;stroke:#000000;stroke-miterlimit:10;}
	.st4{fill:#F4D1AD;}
	.st5{fill:url(#beard_2_);}
	.st6{fill:url(#beard_3_);}
	.st7{fill:none;stroke:#893405;stroke-miterlimit:10;}
</style>
<circle class="st0" cx="215.1" cy="239.1" r="204.5"/>
<linearGradient id="hair_1_" gradientUnits="userSpaceOnUse" x1="76.9619" y1="94.226" x2="325.257" y2="94.226">
	<stop  offset="0" style="stop-color:#603813"/>
	<stop  offset="1" style="stop-color:#553450"/>
</linearGradient>
<path id="hair" class="st1" d="M324.3,184.6c0,0,8.2-51.5-22.6-90.9c0,0,8.2,30,0,45.4c0,0,4.1-41.7-76.1-81c0,0,5.1,25.3,0,31.9
	c0,0,11.2-17.8-119.4-89.9c0,0,69,131.2,14.4,82.4L99.9,58.9l22.9,54.3c0,0,6.1,19.3-17.7-4.3c0,0,13.8,52.7-1.7,31.1
	s-26.4-24-26.4-24s36.7,53.4,37.6,68.6c0.9,15.2,107.2-18.3,108.5-27.7C223,156.9,237.9,187.1,324.3,184.6z"/>
<path id="crown" class="st2" d="M115.4,217.5v-29c0,0,53.6,1.5,107.6-31.6c0,0,3.3,3.8,12.7,9.7c6.7,4.2,16.6,10,30.6,13.3
	c14.5,3.4,33.4,5.6,57.9,4.7c0,0,1.4,21.1,0,32.9H115.4z"/>
<ellipse class="st3" cx="223" cy="185.8" rx="5.9" ry="7.7"/>
<path id="face" class="st4" d="M115.4,217.5c0,0-0.9,15.3,0,18.5s-40.2-11-5.6,48c0,0,10.4,69.7,20.7,81.1
	c10.4,11.4,59.6,50.8,73,51.9c13.4,1.2,9.5,7.9,37.6-2s66.1-49.2,67.9-50.4c1.7-1.2,18.2-50.4,22.5-77.1c0,0,29.4-54.7-6.3-49.2
	l-1-20.9H115.4z"/>
<linearGradient id="beard_2_" gradientUnits="userSpaceOnUse" x1="233.8457" y1="402.9973" x2="307.3236" y2="402.9973">
	<stop  offset="0" style="stop-color:#603813"/>
	<stop  offset="0.9995" style="stop-color:#893405"/>
</linearGradient>
<path id="beard" class="st5" d="M233.8,305.2c0,0,73,0,73.5,20.5c0.4,20.5-22,175.1-22,175.1s-3.9-150.7-3.9-151.9
	s-1.3-15-24.2-17.3c-22.9-2.4-22.9-2.4-22.9-2.4L233.8,305.2z"/>
<linearGradient id="beard_3_" gradientUnits="userSpaceOnUse" x1="286.1165" y1="402.9973" x2="359.5944" y2="402.9973" gradientTransform="matrix(-1 0 0 1 495.5499 0)">
	<stop  offset="0" style="stop-color:#603813"/>
	<stop  offset="0.9995" style="stop-color:#893405"/>
</linearGradient>
<path id="beard_1_" class="st6" d="M209.4,305.2c0,0-73,0-73.5,20.5c-0.4,20.5,22,175.1,22,175.1s3.9-150.7,3.9-151.9
	s1.3-15,24.2-17.3s22.9-2.4,22.9-2.4L209.4,305.2z"/>
<path id="earing_1_" class="st7" d="M108.1,270.6c0,0-6.8,10.6,1.7,13.4"/>
<path id="earing" class="st7" d="M106.9,267.2c0,0-9.4,8.8-1.8,13.4"/>
</svg>
