<?xml version="1.0" encoding="utf-8"?>
<!-- Generator: Adobe Illustrator 23.0.6, SVG Export Plug-In . SVG Version: 6.00 Build 0)  -->
<svg version="1.1" id="Jhin" xmlns="http://www.w3.org/2000/svg" xmlns:xlink="http://www.w3.org/1999/xlink" x="0px" y="0px"
	 viewBox="0 0 422.5 429.9" style="enable-background:new 0 0 422.5 429.9;" xml:space="preserve">
<style type="text/css">
	.st0{fill:#FFDCD4;}
	.st1{fill:#FFFFFF;stroke:#000000;stroke-miterlimit:10;}
</style>
<circle id="background" class="st0" cx="211.1" cy="216" r="204.5"/>
<path id="outside" d="M81.6,127.5c0,0,18.4-117.6,131.1-116.1S343,127.5,343,127.5s3.8,187.6-25,223.1c-0.9,1.1-6.4,10.8-8.1,12.3
	c-22.4,20.1-44.5,43.3-69.8,51.9c-2.1,0.7-40.5,2.6-47.3,0.2c-35.1-12.9-72.7-36.5-88.2-62.2C86.2,322,78.6,140.5,81.6,127.5z"/>
<path id="main_face" class="st1" d="M250.3,64.5c0,0,35.5,19.9,44.5,30.3c0,0,35.5,6.6,62.4,83.7l-47.3,89.9l-4.3,92.7
	c0,0-52.3,44.9-58.1,41.6s12.2-47.8-37.5-46.8c0,0-40.2-7.2-36.4,47c0,0-53-31.9-54.9-41.8s-4.7-92.7-4.7-92.7s-48.2-88.5-45.9-92.2
	c2.4-3.8,26-68.1,59.6-81.8c0,0,38.8-30.7,44.9-29.8c0,0,4.2,32.2,39.9,32.2S250.3,64.5,250.3,64.5z"/>
<path id="eye" d="M110.8,176.6c0,0,29.3-2.8,39.7,5.2c10.4,8,34.5,30.3,34.5,30.3s-30.3,4.2-50.6-7.2
	C134.4,205,111.7,181.8,110.8,176.6z"/>
<path id="eye_1_" d="M241.3,212.1c2.4-0.1,27-36,47.8-35.5s26,0,26,0s-21.3,29.3-30.3,31.7S241.3,212.1,241.3,212.1z"/>
</svg>
