<?xml version="1.0" encoding="utf-8"?>
<!-- Generator: Adobe Illustrator 23.0.6, SVG Export Plug-In . SVG Version: 6.00 Build 0)  -->
<svg version="1.1" id="Kalista" xmlns="http://www.w3.org/2000/svg" xmlns:xlink="http://www.w3.org/1999/xlink" x="0px" y="0px"
	 viewBox="0 0 436.5 473.9" style="enable-background:new 0 0 436.5 473.9;" xml:space="preserve">
<style type="text/css">
	.st0{fill:#E9FFEB;}
	.st1{fill:#4A97AF;}
	.st2{fill:url(#top_1_);}
	.st3{fill:#392E2F;}
	.st4{fill:url(#top_hair_1_);}
	.st5{fill:#302E3A;}
</style>
<circle id="background" class="st0" cx="218.1" cy="261.5" r="204.5"/>
<path id="face" class="st1" d="M101.2,246.4c0,0-40.6-13.2,42.9,134.7c0,0,63.6,111.7,133.1,0s58.5-132.7,40.1-135
	C317.3,246.1,223.5,86.4,101.2,246.4z"/>
<linearGradient id="top_1_" gradientUnits="userSpaceOnUse" x1="135.1429" y1="170.7944" x2="281.3743" y2="170.7944">
	<stop  offset="0" style="stop-color:#000000"/>
	<stop  offset="1" style="stop-color:#1B1464"/>
</linearGradient>
<path id="top" class="st2" d="M135.1,159.2c0,0,9.6-29,62.5-35s83.7,34.3,83.7,34.3S222.6,291.7,135.1,159.2z"/>
<path id="main_mask" class="st3" d="M144.9,356.3c0,0-5.5,72.9,11.8,117.5c0,0-15.7-11.8-44.7-101.9c0,0-13.7-39.2-28.6-49.9
	c0,0,47.1-93.2-4.1-156.2c0,0-44-34.8-41-56.3c0,0,29.7,23,64.5,27.1c0,0,16.9,20.5,32.3,22.5c0,0,19.5,5.6,34.3-8.7
	c0,0-2,32.3,41,53.8c0,0,41-25.6,41-51.7c0,0,28.2,22,67.6-14.3c0,0,38.4-8.2,60.9-28.7c0,0-1.5,31.2-37.9,54.3
	c0,0,15.9,69.1,17.4,86s8.7,35.3,13.8,38.4c0,0-14.9-5.1-26.6-18.9c0,0,5.1,53.3,1,73.7c-4.1,20.5,5.6,42.5,5.6,42.5
	s-28.7-44.6-28.2-48.1s-18.9,30.2-30.7,71.2c-11.8,41-28.7,65.5-31.7,65.2c0,0,22-83.2,11.8-118c0,0,23.6-3.6,29.7-51.2
	c0,0,3.1-64.5-1.9-73.1c-5-8.6-17.7-34.6-58.5-0.3c0,0-21.1,17.5-33,36.6c0,0-38.2-51.3-62.1-51.3s-22.2,3.6-31.6,17.7
	c0,0-6.7,49.9-0.8,73.7C122.1,331.9,127.8,349.1,144.9,356.3z"/>
<path id="hair_ring" class="st3" d="M197.6,124.3c0,0-18.9-50.6,6.9-41.8c0,0-5.5,33.9,20.7,20.4c0,0-0.5,14.5-4.1,21.4
	C217.4,131.2,207.8,154.1,197.6,124.3z"/>
<linearGradient id="top_hair_1_" gradientUnits="userSpaceOnUse" x1="204.2717" y1="84.0744" x2="336.1641" y2="84.0744">
	<stop  offset="0" style="stop-color:#000000"/>
	<stop  offset="1" style="stop-color:#1B1464"/>
</linearGradient>
<path id="top_hair" class="st4" d="M204.5,82.4c0,0,0.9-73.6,23.5-74c0,0-11.1,19.8-10.6,24.8c0.5,5.1,8.3-22.1,58.4-7.8
	s60.4,107.9,60.4,107.9s-50.3,27.2-50.5,26.5c-5.8-23.3-48.4-75.5-60.4-56.9C225.2,102.8,201.5,117.5,204.5,82.4z"/>
<path id="hair" class="st5" d="M342,163.8l16.4,78.4c0,0,3,35.4,14.9,46c0,0-17.4-6-26.6-18.9C337.4,256.4,313.7,168.4,342,163.8z"
	/>
</svg>
