<?xml version="1.0" encoding="utf-8"?>
<!-- Generator: Adobe Illustrator 23.0.6, SVG Export Plug-In . SVG Version: 6.00 Build 0)  -->
<svg version="1.1" id="Kindred" xmlns="http://www.w3.org/2000/svg" xmlns:xlink="http://www.w3.org/1999/xlink" x="0px" y="0px"
	 viewBox="0 0 427.3 424.8" style="enable-background:new 0 0 427.3 424.8;" xml:space="preserve">
<style type="text/css">
	.st0{fill:#D4FFE0;}
	.st1{fill:url(#outside_hair_1_);}
	.st2{fill:url(#left_hair_2_);}
	.st3{fill:url(#left_hair_3_);}
	.st4{fill:#18C497;}
</style>
<circle id="background" class="st0" cx="211.3" cy="212.7" r="204.5"/>
<linearGradient id="outside_hair_1_" gradientUnits="userSpaceOnUse" x1="215.291" y1="13.1382" x2="215.291" y2="370.2162">
	<stop  offset="0" style="stop-color:#FFFFFF"/>
	<stop  offset="0.1116" style="stop-color:#FAFAFA"/>
	<stop  offset="0.2355" style="stop-color:#EDEDED"/>
	<stop  offset="0.3655" style="stop-color:#D7D7D7"/>
	<stop  offset="0.4998" style="stop-color:#B8B8B8"/>
	<stop  offset="0.6372" style="stop-color:#909090"/>
	<stop  offset="0.7774" style="stop-color:#5E5E5E"/>
	<stop  offset="0.917" style="stop-color:#252525"/>
	<stop  offset="1" style="stop-color:#000000"/>
</linearGradient>
<path id="outside_hair" class="st1" d="M88.6,329.5c0,0,2.5,29.5,5.6,40.8c0,0-24.1-64.6-26.3-76.2l-10,42
	c0,0-19.6-167.3,14.1-201.4c0,0,32.5-93.6,67.4-108.6c0,0,2.3,25.8,6.5,29.1c0,0,36.1-36.6,88.4-42L197,42.7
	c0,0,25.3-13.7,100.6-11.7l13.6,28.3c0,0,30.5,9.6,67.2,72.8l-31.6-5.3c0,0,11.2,5.7,15.4,19.9c0,0-14.2-5.4-15.4-2.9
	c0,0,13.6,11.2,11.7,72.9s1.9,87.1,1.9,87.1l-15.5-19.3l-7.5,69.5l-4.9-22.2L115.1,115.5L88.6,329.5z"/>
<linearGradient id="left_hair_2_" gradientUnits="userSpaceOnUse" x1="118.365" y1="115.4878" x2="118.365" y2="396.7191">
	<stop  offset="0" style="stop-color:#FFFFFF"/>
	<stop  offset="0.1116" style="stop-color:#FAFAFA"/>
	<stop  offset="0.2355" style="stop-color:#EDEDED"/>
	<stop  offset="0.3655" style="stop-color:#D7D7D7"/>
	<stop  offset="0.4998" style="stop-color:#B8B8B8"/>
	<stop  offset="0.6372" style="stop-color:#909090"/>
	<stop  offset="0.7774" style="stop-color:#5E5E5E"/>
	<stop  offset="0.917" style="stop-color:#252525"/>
	<stop  offset="1" style="stop-color:#000000"/>
</linearGradient>
<path id="left_hair" class="st2" d="M115.1,115.5c0,0-98.2,47.7-5,272.9c0,0,43.8,18.6,56.7,0l-16.9-92.2L115.1,115.5z"/>
<linearGradient id="left_hair_3_" gradientUnits="userSpaceOnUse" x1="216.3481" y1="115.4878" x2="216.3481" y2="396.7191" gradientTransform="matrix(-1 0 0 1 519.8143 0)">
	<stop  offset="0" style="stop-color:#FFFFFF"/>
	<stop  offset="0.1116" style="stop-color:#FAFAFA"/>
	<stop  offset="0.2355" style="stop-color:#EDEDED"/>
	<stop  offset="0.3655" style="stop-color:#D7D7D7"/>
	<stop  offset="0.4998" style="stop-color:#B8B8B8"/>
	<stop  offset="0.6372" style="stop-color:#909090"/>
	<stop  offset="0.7774" style="stop-color:#5E5E5E"/>
	<stop  offset="0.917" style="stop-color:#252525"/>
	<stop  offset="1" style="stop-color:#000000"/>
</linearGradient>
<path id="left_hair_1_" class="st3" d="M306.7,115.5c0,0,98.2,47.7,5,272.9c0,0-43.8,18.6-56.7,0l16.9-92.2L306.7,115.5z"/>
<path id="main_face" d="M248.1,102.2l65.3-94.1c0,0-3.9,117.7-11.3,139.7c0,0,22.8,22.7,11.3,80.6c0,0-7.8,22.7-17.5,31
	s-32.7,40-40,55.5c-7.3,15.5-25.7,50.9-46.1,53c-20.4,2.1-39.1-36.9-47.6-51.6c-8.5-14.7-27-44.8-42.8-58.6s-31-78.7,0-116.7
	c0,0-13.3-65-10-132.9l64,92.5C173.3,100.7,203.8,86,248.1,102.2z"/>
<circle id="eyes" class="st4" cx="146" cy="210.6" r="16.8"/>
<circle id="eyes_1_" class="st4" cx="270.3" cy="210.6" r="16.8"/>
<path id="symbol" class="st4" d="M237.9,149.5c0,0-42.7-40.7-22.1,44.3c0,0-37.1-48.6-10.7-63.2
	C231.5,115.9,237.9,149.5,237.9,149.5z"/>
</svg>
