<?xml version="1.0" encoding="utf-8"?>
<!-- Generator: Adobe Illustrator 23.0.6, SVG Export Plug-In . SVG Version: 6.00 Build 0)  -->
<svg version="1.1" id="lucian" xmlns="http://www.w3.org/2000/svg" xmlns:xlink="http://www.w3.org/1999/xlink" x="0px" y="0px"
	 viewBox="0 0 417.7 531.9" style="enable-background:new 0 0 417.7 531.9;" xml:space="preserve">
<style type="text/css">
	.st0{fill:#E9FEFF;}
	.st1{fill:#96765C;}
	.st2{fill:#211A24;}
	.st3{fill:url(#left_2_);}
	.st4{fill:url(#left_3_);}
</style>
<circle class="st0" cx="210" cy="221.9" r="204.5"/>
<path id="face" class="st1" d="M80.6,175.7c0,0-25.5-15.8-23.7,12.3c1.8,28.1-1.8,44,29,78.3l15.9,52.5l72.9,83.8
	c0,0,46.6,23.7,76.5,0s87.1-86.2,87.1-86.2l12.3-56.3c0,0,35.2-50.1,22-81.8c0,0-3.4-11.5-22.8-7.1
	C349.8,171.2,219.6-3.7,80.6,175.7z"/>
<path id="front_hair" class="st2" d="M98.2,82.5c0,0,12.5-68.6,118.4-73.9c0,0,83-0.9,112,68.6c0,0-18.5,56.3-42.2,75.6l5.3-28.1
	c0,0-96.7,14.1-153,0c0,0,5.3,23.7,7.9,28.1C146.6,152.8,111.4,122,98.2,82.5z"/>
<path id="leeft_hair" class="st2" d="M72.7,254.3c0,0,1-4.2,2.4-1.9c1.5,2.3,8.5,10.9,8.9,11.1c1.1,0.8,2.5,3.1,2.8,3.7
	c9.2,18.2,71,275.8,50.1,228.6c-5.3-12.1-44.9-79.2-45.7-117.9c0,0,1.8,68.6,11.4,105.6C102.6,483.5,48.9,405.8,72.7,254.3z"/>
<path id="right_hanir" class="st2" d="M350.6,260.1c0,0,44.9,102,40.5,175s-24.6,89.7-24.6,89.7s7-136.3-7.9-172.4
	c0,0-0.9,58.9-2.6,71.2c-1.8,12.3-17.6-107.3-17.6-107.3S342.7,262.7,350.6,260.1z"/>
<linearGradient id="left_2_" gradientUnits="userSpaceOnUse" x1="78.926" y1="162.8105" x2="147.4592" y2="162.8105" gradientTransform="matrix(0.9998 1.753514e-02 -1.753514e-02 0.9998 2.5732 -2.7233)">
	<stop  offset="0" style="stop-color:#886567"/>
	<stop  offset="1" style="stop-color:#534A52"/>
</linearGradient>
<path id="left" class="st3" d="M80.9,242.9c0,0-12.7-106.9,17.5-162.4c0,0,15.6,46.5,49,72c0,0-80-40-58.3,90.6L80.9,242.9z"/>
<linearGradient id="left_3_" gradientUnits="userSpaceOnUse" x1="170.5508" y1="166.2953" x2="236.5132" y2="166.2953" gradientTransform="matrix(-1.0285 9.645127e-02 9.672701e-02 1.0315 512.8192 -31.2256)">
	<stop  offset="0" style="stop-color:#886567"/>
	<stop  offset="1" style="stop-color:#534A52"/>
</linearGradient>
<path id="left_1_" class="st4" d="M357.7,240.1c0,0,4.3-110.2-30-164.7c0,0-11.9,48.7-42.9,77.2c0,0,76.1-46.9,64.8,88.2
	L357.7,240.1z"/>
</svg>
