<?xml version="1.0" encoding="utf-8"?>
<!-- Generator: Adobe Illustrator 23.0.6, SVG Export Plug-In . SVG Version: 6.00 Build 0)  -->
<svg version="1.1" id="miss_fortune" xmlns="http://www.w3.org/2000/svg" xmlns:xlink="http://www.w3.org/1999/xlink" x="0px"
	 y="0px" viewBox="0 0 440.3 483.3" style="enable-background:new 0 0 440.3 483.3;" xml:space="preserve">
<style type="text/css">
	.st0{fill:#BFF6FF;stroke:#EDCBF4;stroke-miterlimit:10;}
	.st1{fill:#F4F0E9;}
	.st2{fill:#3C1005;}
	.st3{fill:url(#hair_1_);}
	.st4{fill:#F4D522;}
	.st5{fill:#F9CC3E;stroke:#EDCBF4;stroke-miterlimit:10;}
</style>
<circle class="st0" cx="221.7" cy="253" r="204.5"/>
<path id="face" class="st1" d="M132.3,314.5c0,0-15.3,29.1,77.8,66.5c0,0,78.3-23.1,88.7-85.2s-39-96.2-39-96.2
	S130.5,234.4,132.3,314.5z"/>
<path id="hair_inside" class="st2" d="M132.3,314.5c0,0-16,17.5,48.2,53.2c0,0-5.1,75.1-25,76.5C135.6,445.4,80.4,318,132.3,314.5z"
	/>
<path id="hair_inside_1_" class="st2" d="M260.6,354.5c0,0,31.8-12.6,38.2-58.7c0,0,22.4,11.9-38.2,108.2
	C260.6,404,253.5,391.8,260.6,354.5z"/>
<linearGradient id="hair_1_" gradientUnits="userSpaceOnUse" x1="66.4172" y1="324.6036" x2="353.6364" y2="324.6036">
	<stop  offset="0" style="stop-color:#94001D"/>
	<stop  offset="1" style="stop-color:#C1272D"/>
</linearGradient>
<path id="hair" class="st3" d="M99,211.6c0,0-5.6,18.9-4,58.7s-25.5,56.5-26.3,69.2s-15.1,41.4,39,65.3S83,466.9,81.4,423.9
	c0,0-12.7,58.8,61.3,33.4c0,0,52.5-42.9,0-63.6c-52.5-20.7-6-132.1,79-149.6c0,0,39.3-26.5,38-44.5c0,0,20.7,62.8,39,96.2
	c0,0,10.2,13.6-31,87.5c0,0-20.7,27.9,15.1,60.5s70.8-23.9,70.8-23.9s-51.7,37.4-54.1-20.7c-2.4-58.1,54.9-58.5,35.8-187.6
	C335.3,211.6,246.2,152.9,99,211.6z"/>
<path id="hat_outside" class="st4" d="M22,157c0,0,82.7,17.6,126.4-66.4s57.1-76.5,57.1-76.5s13.4,111.4,33.6-0.2
	c0,0,33.6,22.9,58,80s57.1,67.8,124.4,64.6c0,0-50.4,80.8-132.8,43c0,0-49.6-16-125.2-3.4S88.9,230.1,22,157z"/>
<path id="hat_indide" d="M47.5,168.8c0,0,79.8,12.6,113.4-73.1c0,0,26.2-49.3,37-55.5c0,0,26.9,80.7,51.3,0c0,0,26.9,29.4,39.5,60.5
	s45.4,81.1,99.2,68.7c0,0-8.4,43-70.6,26.2c-38.5-10.4-57.2-17.2-90.8-14.8c-10,0.7-21.4-1.5-35,1.1c-14.3,2.7-31.1,10.4-51.5,10.4
	C129.8,192.3,83.6,218.3,47.5,168.8z"/>
<path id="flash_on_hat" class="st5" d="M227.9,89.7c0,0-21.8,15.8-17.9,17.5c3.9,1.8,11.7,12.7,11.7,12.7l6.2,11l-12.2,7
	c0,0-7,5.3-6.2,7.9s12.2,12.3,12.2,12.3c-7.8,7.9-12.2,12.3-12.2,12.3"/>
</svg>
