<?xml version="1.0" encoding="utf-8"?>
<!-- Generator: Adobe Illustrator 23.0.6, SVG Export Plug-In . SVG Version: 6.00 Build 0)  -->
<svg version="1.1" id="twitch" xmlns="http://www.w3.org/2000/svg" xmlns:xlink="http://www.w3.org/1999/xlink" x="0px" y="0px"
	 viewBox="0 0 455.8 421.7" style="enable-background:new 0 0 455.8 421.7;" xml:space="preserve">
<style type="text/css">
	.st0{fill:#D4FFE0;}
	.st1{fill:#B6624E;}
	.st2{fill:#4D4D4D;}
	.st3{fill:url(#face_1_);}
	.st4{fill:#65C8D0;}
</style>
<circle id="background" class="st0" cx="229.3" cy="210.2" r="204.5"/>
<path id="ear" class="st1" d="M18.1,87.8l14.3,48.6l11.7,1.7c0,0,1,1.4,0,4.1s-6.6,14.2-3.8,22.1c2.8,7.9,21.2,48,43.1,54.4
	C83.5,218.8,116,168.5,18.1,87.8z"/>
<path id="ear_1_" class="st1" d="M445.6,82c0,0-16.9,41.9-19.7,65.7s-30.3,67.6-39.3,67.5C377.6,215.2,372.8,125.8,445.6,82z"/>
<g id="ear_border">
	<path class="st2" d="M450.5,75.7c-1.1,1.4-2,2.9-2.9,4.4c-0.9,1.5-1.7,3.1-2.4,4.7c-1.5,3.2-3,6.4-4.3,9.6
		c-2.7,6.5-5.2,13.1-7.6,19.7c-5,13.1-7.1,26.9-10.4,40.8c-1.7,6.9-3.9,13.8-6.7,20.4c-2.8,6.6-6.4,12.8-10.3,18.8
		c-8.1,11.8-17.9,22.2-28.5,31.5c9.4-10.5,18.5-21.4,25.9-33.2c7.3-11.9,12.7-24.8,15.8-38.4c1.7-6.8,3-13.7,4.7-20.6
		c0.5-1.7,0.9-3.5,1.4-5.2l1.5-5.1c1.2-3.4,2.3-6.8,3.7-10c2.6-6.6,5.5-13.1,8.7-19.4c1.6-3.2,3.3-6.3,5.1-9.3
		C446.1,81.2,448,78.2,450.5,75.7z"/>
</g>
<radialGradient id="face_1_" cx="229.2788" cy="230.5508" r="207.3499" gradientUnits="userSpaceOnUse">
	<stop  offset="0" style="stop-color:#FFFFFF"/>
	<stop  offset="1.534194e-02" style="stop-color:#FBFBFB"/>
	<stop  offset="0.2748" style="stop-color:#BEBEBE"/>
	<stop  offset="0.5121" style="stop-color:#8D8D8D"/>
	<stop  offset="0.7196" style="stop-color:#6A6A6A"/>
	<stop  offset="0.8893" style="stop-color:#555555"/>
	<stop  offset="1" style="stop-color:#4D4D4D"/>
</radialGradient>
<path id="face" class="st3" d="M162.4,103.4c0,0,10.4-39.9,13-42.5c2.6-2.6,6.1,30.4,6.1,30.4s49.5-40.8,68.6-46.9
	c0,0-20,13-11.3,43.4c0,0,52.9-13,56.4-17.4c0,0-22.6,13.9-20.8,22.6c0,0,29.5-15.6,32.1-19.1c0,0-18.2,21.7-13,29.5
	c5.2,7.8,52.9-45.1,162.3-29.5c0,0-97.8,70.6-67.2,147.1c3.5,8.8,8.7,17.6,15.9,26.5l-16.5,4.3l20.8,21.7c0,0-38.2,1.7-70.3,48.6
	s-51.2,58.2-70.3,69.4c-19.1,11.3-27.8,25.2-27.8,25.2l-9.8-11.3l-6.7,11.3c0,0-53.8-24.3-89.4-74.6S86.9,281.3,73,284.8l12.2-24.3
	c0,0-20.8,8.7-34.7,4.3c0,0,35.6-6.9,34.7-70.3c0,0-5.2-52.9-72-111.1l-10.4-20C2.7,63.5,106,60,162.4,103.4z"/>
<path id="nose" class="st1" d="M207.3,277.3c0,0,14.9-8.6,9.3,11.4c0,0,4.8,8.6,10,10.4s6.9,4.1,12.4,0c5.5-4.1,10-10.7,10-10.7
	s-10-16.3,9.3-11.1c0,0,6.6-5.2,7.6-7.3s4.8-7.9-6.6-10.4c-11.4-2.4-37.3-5.5-52.2,0s-8.3,10-8.3,10L207.3,277.3z"/>
<g id="ear_border_1_">
	<path class="st2" d="M18.1,87.8c1.4,4,2.7,8,4,12c1.3,4,2.7,8,3.9,12c1.3,4,2.6,8,3.8,12.1l3.8,12.1l-1.1-0.9l11.8,1.6l0.6,0.1
		l0.3,0.4c0.2,0.3,0.3,0.4,0.4,0.6c0.1,0.2,0.2,0.4,0.2,0.5c0.1,0.4,0.2,0.7,0.2,1c0.1,0.7,0,1.4-0.1,2c-0.1,0.6-0.3,1.2-0.6,1.7
		l-0.6,1.4c-0.8,1.8-1.5,3.7-2,5.6c-0.5,1.9-0.9,3.8-1,5.8c-0.2,1.9-0.1,3.9,0.1,5.8c0.2,1,0.2,1.9,0.5,2.9l0.3,1.4
		c0.1,0.5,0.3,0.9,0.5,1.4c0.2,0.5,0.3,0.9,0.5,1.4l0.6,1.3c0.4,0.9,0.9,1.8,1.3,2.7c1.9,3.6,3.8,7.2,5.7,10.8
		c4,7.1,8.2,14.1,13.2,20.5c2.5,3.2,5.2,6.2,8.3,8.9c1.5,1.3,3.2,2.5,4.9,3.5c1.8,1,3.6,1.9,5.6,2.4c-4.1-0.7-7.8-2.7-11.1-5.2
		c-3.3-2.5-6.3-5.4-9-8.5c-2.7-3.1-5.2-6.4-7.6-9.8c-2.3-3.4-4.6-6.9-6.6-10.4c-2.1-3.6-4.1-7.2-6-10.8c-0.5-0.9-1-1.8-1.4-2.8
		l-0.7-1.5c-0.2-0.5-0.4-1-0.6-1.5c-0.2-0.5-0.4-1-0.5-1.5l-0.4-1.6c-0.3-1-0.4-2.1-0.6-3.2c-0.5-4.3-0.1-8.6,1-12.7
		c0.6-2.1,1.3-4.1,2.2-6l0.6-1.4c0.2-0.4,0.3-0.8,0.4-1.2c0.1-0.4,0.1-0.8,0.1-1.1c0-0.2,0-0.3-0.1-0.5c0-0.1,0-0.1-0.1-0.2
		c0,0-0.1-0.1,0,0l0.9,0.5l-11.7-1.8l-0.8-0.1l-0.2-0.8l-3.4-12.2c-1.1-4.1-2.2-8.1-3.3-12.2c-1.1-4.1-2.2-8.2-3.2-12.2
		C20.2,96,19.1,91.9,18.1,87.8z"/>
</g>
<circle id="eyeglass_1_" class="st4" cx="159.5" cy="200.9" r="42.7"/>
<circle id="eyeglass" class="st4" cx="305.9" cy="200.9" r="42.7"/>
</svg>
