<?xml version="1.0" encoding="utf-8"?>
<!-- Generator: Adobe Illustrator 23.0.6, SVG Export Plug-In . SVG Version: 6.00 Build 0)  -->
<svg version="1.1" id="Vayne" xmlns="http://www.w3.org/2000/svg" xmlns:xlink="http://www.w3.org/1999/xlink" x="0px" y="0px"
	 viewBox="0 0 470.9 506.3" style="enable-background:new 0 0 470.9 506.3;" xml:space="preserve">
<style type="text/css">
	.st0{fill:#FFD4E6;}
	.st1{fill:url(#hair_top_1_);}
	.st2{fill:url(#hair_big_1_);}
	.st3{fill:#FFF7E9;}
	.st4{fill:#E8B72D;}
	.st5{fill:#AA000E;stroke:#000000;stroke-width:5;stroke-miterlimit:10;}
</style>
<circle class="st0" cx="245.5" cy="228.8" r="204.5"/>
<linearGradient id="hair_top_1_" gradientUnits="userSpaceOnUse" x1="178.94" y1="68.9752" x2="327.1034" y2="68.9752">
	<stop  offset="5.166997e-04" style="stop-color:#262626"/>
	<stop  offset="0.9989" style="stop-color:#000000"/>
</linearGradient>
<path id="hair_top" class="st1" d="M178.9,96.1c0,0-0.3-68.6,76.6-67.4s71.5,80.5,71.5,80.5L178.9,96.1z"/>
<linearGradient id="hair_big_1_" gradientUnits="userSpaceOnUse" x1="119.9516" y1="276.7523" x2="371.8918" y2="276.7523">
	<stop  offset="0.1244" style="stop-color:#262626"/>
	<stop  offset="0.6818" style="stop-color:#000000"/>
</linearGradient>
<path id="hair_big" class="st2" d="M152,287c0-2.6-40-64.7-5.1-71.5c0,0,22.1-78.3,53.6-59.5s45.1,42.7,92.7-2.9
	c0,0,23-20.9,50.2,61.6c0,0,20.4,0,17,19.6s-3.4,31.5-19.6,48.5c0,0-4.3,34.9-29.8,54.4c-25.5,19.6-46.8,28.9-46.8,28.9l14.7,17.6
	c0,0-10.8,18-6.6,38.4c0,0-30.3,12.6-25.7,30c0,0-23-12-44.6-6.6s-33.6-12.2-33.6-12.2s45.6,63.9,81.1,35.7c0,0,57.7,1.2,57.1-24.6
	c0,0,36.6-14.4,42.6-49.9c0,0,1.2-10.2-3.6-29.4c0,0,18-36,1.2-76.3c0,0,67.9-100.9-19.8-179.6c0,0-31.9-26.5-66-31
	c-31.9-4.2-65.6,6.1-77.1,14.5c-2.8,2.1-70.1,42.9-63.5,104.7c6.6,61.9-1.2,47.4,33,103.3L152,287z"/>
<path id="face" class="st3" d="M245.9,373.5c0,0,69.7-18.8,87.1-64.9c17.4-46.2,7.8-25.9,7.8-25.9s33.2-34.6,19.9-54.2
	c-13.3-19.6-17.3-13.9-17.3-13.9s-15.5-76.4-44.5-63.9c-29,12.5-37,30.7-50.5,28.4c-13.5-2.3-56.5-29.8-56.5-29.8s-30,2.4-41.7,55.9
	c-4.4,20-6.7,9.8-8,10.3c-2,0.9-1,1.7-1,1.7s-29.2,1.1,10.7,69.6l6.9,24.7C158.8,311.6,199.7,363.9,245.9,373.5z"/>
<path id="day_cot_toc" class="st4" d="M216.5,80.4c0,0,33.3-34,72.2,5.8C288.7,86.2,259.2,72.7,216.5,80.4z"/>
<path class="st5" d="M134.4,224.3c5.8,0.8,68.3-8.1,82.1,4.2c13.8,12.3,12.6,18.7,12.6,18.7h25.8c0,0,12.6-21.5,21-22.1
	c8.4-0.6,77.5-3.2,77.5-3.2s-34.8,41.6-46.8,42.2c-12,0.6-41.7-1.8-53.6-11.4h-24.5c0,0-42,24-63.1,0S134.4,224.3,134.4,224.3z"/>
<path class="st4" d="M279,383.7c0,0,49.3-5.4,66.7-18.6l0.9,3.7c0,0-19.8,16.6-68.9,17.6L279,383.7z"/>
<path class="st4" d="M272.4,422.1c0,0,14,21.8,34.2,22.2c20.2,0.5-33.5-18.7-34.2-27.6C271.6,407.9,272.4,422.1,272.4,422.1z"/>
<path class="st4" d="M245.9,447.7l-4.3,2.3l7.9,19.1h8.4c0,0-11.8-21.6-11.4-23S245.9,447.7,245.9,447.7z"/>
</svg>
