<?xml version="1.0" encoding="utf-8"?>
<!-- Generator: Adobe Illustrator 23.0.6, SVG Export Plug-In . SVG Version: 6.00 Build 0)  -->
<svg version="1.1" id="xayah" xmlns="http://www.w3.org/2000/svg" xmlns:xlink="http://www.w3.org/1999/xlink" x="0px" y="0px"
	 viewBox="0 0 471.8 493.1" style="enable-background:new 0 0 471.8 493.1;" xml:space="preserve">
<style type="text/css">
	.st0{fill:#F6E9FF;}
	.st1{fill:#2D111F;}
	.st2{fill:#FFFDE9;}
	.st3{fill:url(#ear_2_);}
	.st4{fill:url(#ear_3_);}
	.st5{fill:url(#SVGID_1_);}
	.st6{fill:url(#SVGID_2_);}
	.st7{fill:#0F060A;stroke:#C1BCBF;stroke-width:3;stroke-miterlimit:10;}
</style>
<circle id="circle" class="st0" cx="240.4" cy="255.3" r="204.5"/>
<path id="hat" class="st1" d="M239.8,91.3c0,0,117.2,49.8,150.7,149.9c0,0-1.9,86.2-31.6,113.1c-29.7,26.9-118.7,77.1-118.7,77.1
	S135.9,371,128.4,366.4c-7.4-4.6-44.6-58.5-42.7-67.8s-2.8-71.6,13-83.6C114.5,202.8,124.4,143.3,239.8,91.3z"/>
<path id="face" class="st2" d="M164.4,359.1c0,0,71.3,43.9,75.4,42.9c4.1-1,91.9-60.1,91.9-60.1l6-75.9c0,0-83.5-82.6-99.6-90.2
	c-16.1-7.6-123,128.4-123,128.4S153.7,359.6,164.4,359.1z"/>
<linearGradient id="ear_2_" gradientUnits="userSpaceOnUse" x1="77.3073" y1="124.2909" x2="172.3256" y2="124.2909">
	<stop  offset="0" style="stop-color:#9A584A"/>
	<stop  offset="1" style="stop-color:#9E005D"/>
</linearGradient>
<path id="ear" class="st3" d="M172.1,165.6L108.9,16c0,0-10.2,41.8-13,60.4L85.6,58c0,0-12,72.4,4.7,96.5l-13-5.6
	c0,0,11.2,80.8,28.8,83.6C106.1,232.6,176.8,176.9,172.1,165.6z"/>
<linearGradient id="ear_3_" gradientUnits="userSpaceOnUse" x1="57.0959" y1="124.2909" x2="152.1143" y2="124.2909" gradientTransform="matrix(-1 0 0 1 461.2305 0)">
	<stop  offset="0" style="stop-color:#9A584A"/>
	<stop  offset="1" style="stop-color:#9E005D"/>
</linearGradient>
<path id="ear_1_" class="st4" d="M309.3,165.6L372.5,16c0,0,10.2,41.8,13,60.4L395.8,58c0,0,12,72.4-4.7,96.5l13-5.6
	c0,0-11.2,80.8-28.8,83.6C375.3,232.6,304.6,176.9,309.3,165.6z"/>
<linearGradient id="SVGID_1_" gradientUnits="userSpaceOnUse" x1="269.1721" y1="313.9231" x2="119.0354" y2="313.9231">
	<stop  offset="0" style="stop-color:#9A584A"/>
	<stop  offset="1" style="stop-color:#9E005D"/>
</linearGradient>
<path class="st5" d="M238,175.8l31.1,29.6c0,0-29.1,72.5-58.7,89.2l12.9-36.7c0,0-53.9,59.7-53,71.1l-5.2-18.1
	c0,0-20.5,48.2,40.6,141.3c0,0-98.8-93.5-85.4-151.3c0,0,59.2-47.3,85.9-80.7C210,215.4,238,175.8,238,175.8z"/>
<linearGradient id="SVGID_2_" gradientUnits="userSpaceOnUse" x1="363.1852" y1="358.7444" x2="312.1223" y2="358.7444">
	<stop  offset="0" style="stop-color:#9A584A"/>
	<stop  offset="1" style="stop-color:#9E005D"/>
</linearGradient>
<path class="st6" d="M329.8,257.7c0,0,8.6,78.1-3.3,105.2c0,0,14.8-20.7,14.3-29.7s-12.4,100.1-28.6,126.5c0,0,48.7-83.9,51.1-148.5
	C363.2,311.3,340.8,260.3,329.8,257.7z"/>
<path id="hat_deco" class="st7" d="M109.3,292.9c1.4-1.4,60.6-62,92.1-93.5s33.4-54.4,33.4-54.4s40.6,52.5,77.3,80.2
	s57.7,56.8,57.7,63s-6.7,18.6-6.7,18.6s-5.2-32.5-64.9-77.4S238,179.3,238,179.3s-45.6,68.1-65.7,79.8c-20.1,11.8-52,45.2-52,45.2
	l-1.2,18.1L109.3,292.9z"/>
</svg>
